<?xml version="1.0" encoding="iso-8859-1"?>
<!-- Generator: Adobe Illustrator 19.0.0, SVG Export Plug-In . SVG Version: 6.00 Build 0)  -->
<svg version="1.1" id="Capa_1" xmlns="http://www.w3.org/2000/svg" xmlns:xlink="http://www.w3.org/1999/xlink" x="0px" y="0px"
	 viewBox="0 0 396.492 396.492" style="enable-background:new 0 0 396.492 396.492;" xml:space="preserve">
<g>
	<g>
		<path style="fill:#F23B9F;" d="M314.946,25.791c16.567,16.21,25.812,38.472,25.6,61.649c0.212,23.177-9.033,45.439-25.6,61.649
			l-82.547,83.069l-123.298-123.82l82.547-82.547C225.711-8.221,280.884-8.221,314.946,25.791z"/>
		<path style="fill:#4ED9DA;" d="M109.101,108.338l123.298,123.82l-82.547,83.069c-34.536,33.852-89.807,33.852-124.343,0
			c-34.012-34.062-34.012-89.236,0-123.298L109.101,108.338z"/>
	</g>
	<g>
		<path style="fill:#D4E1F4;" d="M189.036,115.13c-2.756-0.039-5.385-1.166-7.314-3.135c-4.047-4.24-4.047-10.911,0-15.151
			l34.482-33.959c4.204-3.841,10.709-3.609,14.629,0.522c4.04,3.706,4.31,9.986,0.603,14.025c-0.192,0.21-0.394,0.411-0.603,0.603
			l-34.482,33.959C194.421,113.964,191.792,115.091,189.036,115.13z"/>
		<path style="fill:#FFBF67;" d="M266.358,265.595c26.829-27.021,69.545-29.928,99.788-6.792l-106.58,107.102
			C236.356,335.496,239.261,292.598,266.358,265.595z M373.983,373.742c-14.119,14.52-33.56,22.636-53.812,22.465
			c-16.624-0.075-32.768-5.579-45.975-15.673l107.102-106.58C404.062,304.393,400.943,346.948,373.983,373.742z"/>
	</g>
</g>
<g>
</g>
<g>
</g>
<g>
</g>
<g>
</g>
<g>
</g>
<g>
</g>
<g>
</g>
<g>
</g>
<g>
</g>
<g>
</g>
<g>
</g>
<g>
</g>
<g>
</g>
<g>
</g>
<g>
</g>
</svg>
