<svg id="Capa_1" enable-background="new 0 0 512 512" height="512" viewBox="0 0 512 512" width="512" xmlns="http://www.w3.org/2000/svg"><g><path d="m270.462 276.023c-24.813 0-45 20.189-45 45.004v55.005h90v-55.005c0-24.815-20.187-45.004-45-45.004z"/><path d="m225.462 451.037c0 24.815 20.187 45.004 45 45.004s45-20.189 45-45.004v-45.004h-90z"/><path d="m420.462 305.571v-185.561h-105c-8.284 0-15-6.716-15-15.001v-105.009h-255c-8.284 0-15 6.716-15 15.001v451.037c0 8.285 6.716 15.001 15 15.001h156.281c-4.029-9.194-6.281-19.338-6.281-30.003v-130.009c0-41.358 33.645-75.006 75-75.006 38.098 0 69.629 28.564 74.363 65.398 24.153-10.168 50.959-11.932 75.637-5.848zm-255 85.461h-60c-8.284 0-15-6.716-15-15.001s6.716-15.001 15-15.001h60c8.284 0 15 6.716 15 15.001s-6.716 15.001-15 15.001zm30.5-119.509h-90c-8.284 0-15-6.716-15-15.001s6.716-15.001 15-15.001h90c8.284 0 15 6.716 15 15.001 0 8.284-6.716 15.001-15 15.001zm59.5-60.505h-150c-8.284 0-15-6.716-15-15.001s6.716-15.001 15-15.001h150c8.284 0 15 6.716 15 15.001s-6.716 15.001-15 15.001zm0-60.005h-150c-8.284 0-15-6.716-15-15.001s6.716-15.001 15-15.001h150c8.284 0 15 6.716 15 15.001s-6.716 15.001-15 15.001z"/><path d="m330.462 8.788v81.219h81.213z"/><path d="m345.462 344.668v102.156l98.144-98.152c-29.087-20.699-67.813-22.036-98.144-4.004z"/><path d="m464.807 369.898-125.467 125.478c15.543 11.063 33.824 16.624 52.122 16.624 73.19 0 115.503-82.846 73.345-142.102z"/></g></svg>